<svg width="324" height="342" viewBox="0 0 324 342" fill="none" xmlns="http://www.w3.org/2000/svg">
<g clip-path="url(#clip0)">
<path d="M324.623 245.899C324.623 252.844 322.052 259.657 317.197 264.79L255.337 330.224C248.159 337.817 238.61 342 228.448 342C218.286 342 208.734 337.817 201.556 330.224L139.696 264.79C132.423 257.1 130.275 245.643 134.221 235.602C138.161 225.575 147.346 219.096 157.62 219.096H215.789C215.789 113.02 134.03 26.7188 33.5366 26.7188H13.2891C6.29846 26.7188 0.632813 20.7383 0.632813 13.3594C0.632813 5.98041 6.29846 0 13.2891 0H33.5366C88.9794 0 141.105 22.7892 180.31 64.172C219.512 105.555 241.104 160.573 241.104 219.096C241.104 233.831 229.748 245.818 215.792 245.818H157.62C157.617 245.818 157.615 245.818 157.612 245.818C157.602 245.839 157.593 245.865 157.585 245.888C157.595 245.896 157.602 245.906 157.612 245.917L219.475 311.352C221.87 313.885 225.056 315.281 228.448 315.281C231.839 315.281 235.026 313.885 237.421 311.352L299.281 245.917L299.308 245.888C299.301 245.865 299.293 245.839 299.283 245.818C299.281 245.818 299.278 245.818 299.273 245.818H285.401C278.41 245.818 272.745 239.835 272.745 232.456C272.745 225.079 278.41 219.096 285.401 219.096H299.273C309.547 219.096 318.732 225.575 322.673 235.602C323.985 238.94 324.623 242.436 324.623 245.899Z" fill="url(#paint0_linear)"/>
</g>
<defs>
<linearGradient id="paint0_linear" x1="162.628" y1="342" x2="162.628" y2="-0.000122309" gradientUnits="userSpaceOnUse">
<stop stop-color="#E27676"/>
<stop offset="0.2557" stop-color="#CD4676"/>
<stop offset="0.5295" stop-color="#FB7878"/>
<stop offset="0.7844" stop-color="#FA7474"/>
<stop offset="1" stop-color="#FF0000"/>
</linearGradient>
<clipPath id="clip0">
<rect width="342" height="324" fill="white" transform="translate(0 342) rotate(-90)"/>
</clipPath>
</defs>
</svg>
